<?xml version="1.0" encoding="utf-8"?>
<svg version="1.1" xmlns:xlink="http://www.w3.org/1999/xlink" width="20px" height="20px" xmlns="http://www.w3.org/2000/svg">
  <g transform="matrix(1 0 0 1 -662 -558 )">
    <path d="M 672 559  C 677.04 559  681 562.96  681 568  C 681 573.04  677.04 577  672 577  C 666.96 577  663 573.04  663 568  C 663 562.96  666.96 559  672 559  Z " fill-rule="nonzero" fill="#ffffff" stroke="none" />
    <path d="M 672 559  C 677.04 559  681 562.96  681 568  C 681 573.04  677.04 577  672 577  C 666.96 577  663 573.04  663 568  C 663 562.96  666.96 559  672 559  Z " stroke-width="2" stroke="#409eff" fill="none" />
  </g>
</svg>