<svg t="1742888299224" class="icon" viewBox="0 0 1024 1024" version="1.1" xmlns="http://www.w3.org/2000/svg" p-id="4416" width="200" height="200"><path d="M832 128a64 64 0 0 1 64 64v640a64 64 0 0 1-64 64H192a64 64 0 0 1-64-64V192a64 64 0 0 1 64-64h640z m0 64H192v640h640V192zM440.96 284.928a70.4 70.4 0 0 1 42.496 42.688l128.768 363.52a38.4 38.4 0 0 1-72.448 25.664L492.16 582.4H340.544l-48.384 134.592a38.4 38.4 0 0 1-43.136 24.768l-6.016-1.6a38.4 38.4 0 0 1-23.168-49.152l131.008-363.712a70.4 70.4 0 0 1 90.112-42.368z m264.192 84.032a38.4 38.4 0 0 1 38.4 38.4v274.24a38.4 38.4 0 0 1-76.8 0V407.36a38.4 38.4 0 0 1 38.4-38.4z m-288.192 1.152L368.192 505.6h96.768l-48-135.488zM700.8 256a48 48 0 1 1 0 96 48 48 0 0 1 0-96z" fill="#11b3f6" p-id="4417"></path></svg>