<svg t="1742888508258" class="icon" viewBox="0 0 1024 1024" version="1.1" xmlns="http://www.w3.org/2000/svg" p-id="6365" width="200" height="200"><path d="M512 324.26c-103.52 0-187.74 84.22-187.74 187.74S408.48 699.74 512 699.74 699.74 615.52 699.74 512 615.52 324.26 512 324.26z m0 316.19c-70.83 0-128.45-57.63-128.45-128.45S441.17 383.55 512 383.55 640.45 441.17 640.45 512 582.83 640.45 512 640.45z" p-id="6366" fill="#11b3f6"></path><path d="M878.09 414.92h-9.47c-19.03 0-36.11-11.78-43.43-29.82l-1.17-2.83c-8.03-19.31-4.15-40.86 9.9-54.9l5.59-5.59c9.22-9.22 14.31-21.51 14.31-34.58 0-13.09-5.09-25.38-14.31-34.58L771.4 184.5c-18.43-18.44-50.72-18.47-69.19-0.01l-5.59 5.59c-14.04 14.06-35.58 17.95-55.57 9.61l-1.96-0.79c-18.24-7.41-30.02-24.49-30.02-43.52v-9.47c0-26.97-21.94-48.91-48.91-48.91h-96.34c-26.97 0-48.91 21.94-48.91 48.91v9.47c0 19.03-11.78 36.11-29.82 43.43l-2.84 1.16c-19.31 8.06-40.87 4.16-54.9-9.89l-5.59-5.59c-18.47-18.47-50.77-18.43-69.17 0L184.5 252.6c-9.23 9.22-14.32 21.51-14.32 34.6 0 13.07 5.09 25.36 14.31 34.58l5.59 5.59c14.05 14.05 17.93 35.6 9.95 54.77l-1.13 2.76c-7.41 18.24-24.49 30.02-43.52 30.02h-9.47c-26.97 0-48.91 21.94-48.91 48.91v96.34c0 26.97 21.94 48.91 48.91 48.91h9.47c19.03 0 36.11 11.78 43.43 29.82l1.17 2.83c8.03 19.31 4.15 40.86-9.9 54.9l-5.59 5.59c-9.22 9.22-14.31 21.51-14.31 34.58 0 13.09 5.09 25.38 14.31 34.58l68.12 68.12c19.05 19.07 50.08 19.07 69.17 0l5.59-5.59c14.05-14.06 35.62-17.93 54.77-9.95l2.76 1.13c18.24 7.41 30.02 24.49 30.02 43.52v9.47c0 26.97 21.94 48.91 48.91 48.91h96.34c26.97 0 48.91-21.94 48.91-48.91v-9.47c0-19.03 11.78-36.11 29.82-43.43l2.83-1.17c19.33-8.03 40.85-4.13 54.9 9.9l5.6 5.61c19.08 19.07 50.1 19.05 69.16-0.02l68.11-68.11c9.23-9.22 14.32-21.51 14.32-34.6 0-13.07-5.09-25.36-14.31-34.58l-5.59-5.59c-14.05-14.05-17.93-35.6-9.46-55.98 7.91-19.18 25.84-31.57 45.69-31.57h4.14c29.06 0 52.7-23.64 52.7-52.7v-92.55c0.01-26.96-21.93-48.9-48.9-48.9z m-10.38 134.91c-42.96 0.97-81.28 27.55-98.42 69.13-16.97 40.78-8.7 86.74 20.99 117.83l-53.5 53.5c-31.1-29.68-77.03-37.96-117.83-20.99l-2.16 0.89c-40.41 16.41-66.63 54.63-67 97.54H474.2c-0.37-42.9-26.58-81.12-67-97.54l-2.16-0.89c-40.81-16.98-86.76-8.7-117.83 20.99l-53.5-53.5c29.69-31.09 37.96-77.05 20.99-117.83l-0.89-2.16c-16.41-40.41-54.63-66.63-97.54-67v-75.6c42.9-0.37 81.12-26.58 97.54-67l0.89-2.16c16.97-40.78 8.7-86.74-20.99-117.83l53.5-53.5c31.11 29.71 77.11 37.95 117.67 21.05l2.32-0.95c40.41-16.41 66.63-54.63 67-97.54h75.59c0.37 42.9 26.58 81.12 67 97.54l2.15 0.88c40.77 16.97 86.73 8.72 117.84-20.98l53.5 53.5c-29.69 31.09-37.96 77.05-20.99 117.83l0.89 2.16c16.41 40.41 54.63 66.63 97.54 67v75.63z" p-id="6367" fill="#11b3f6"></path></svg>