<?xml version="1.0" encoding="utf-8"?>
<svg version="1.1" xmlns:xlink="http://www.w3.org/1999/xlink" width="23px" height="19px" xmlns="http://www.w3.org/2000/svg">
  <g transform="matrix(1 0 0 1 -736 -178 )">
    <path d="M 6.95252403846154 17.1512784090909  C 7.03545673076923 17.0703125  7.07692307692308 16.9668560606061  7.07692307692308 16.8409090909091  L 7.07692307692308 14.25  C 7.07692307692308 14.124053030303  7.03545673076923 14.0205965909091  6.95252403846154 13.9396306818182  C 6.86959134615385 13.8586647727273  6.76362179487179 13.8181818181818  6.63461538461538 13.8181818181818  L 2.21153846153846 13.8181818181818  C 2.08253205128205 13.8181818181818  1.9765625 13.8586647727273  1.89362980769231 13.9396306818182  C 1.81069711538462 14.0205965909091  1.76923076923077 14.124053030303  1.76923076923077 14.25  L 1.76923076923077 16.8409090909091  C 1.76923076923077 16.9668560606061  1.81069711538462 17.0703125  1.89362980769231 17.1512784090909  C 1.9765625 17.2322443181818  2.08253205128205 17.2727272727273  2.21153846153846 17.2727272727273  L 6.63461538461538 17.2727272727273  C 6.76362179487179 17.2727272727273  6.86959134615385 17.2322443181818  6.95252403846154 17.1512784090909  Z M 6.95252403846154 11.9694602272727  C 7.03545673076923 11.8884943181818  7.07692307692308 11.7850378787879  7.07692307692308 11.6590909090909  L 7.07692307692308 9.06818181818182  C 7.07692307692308 8.94223484848485  7.03545673076923 8.83877840909091  6.95252403846154 8.7578125  C 6.86959134615385 8.67684659090909  6.76362179487179 8.63636363636364  6.63461538461538 8.63636363636364  L 2.21153846153846 8.63636363636364  C 2.08253205128205 8.63636363636364  1.9765625 8.67684659090909  1.89362980769231 8.7578125  C 1.81069711538462 8.83877840909091  1.76923076923077 8.94223484848485  1.76923076923077 9.06818181818182  L 1.76923076923077 11.6590909090909  C 1.76923076923077 11.7850378787879  1.81069711538462 11.8884943181818  1.89362980769231 11.9694602272727  C 1.9765625 12.0504261363636  2.08253205128205 12.0909090909091  2.21153846153846 12.0909090909091  L 6.63461538461538 12.0909090909091  C 6.76362179487179 12.0909090909091  6.86959134615385 12.0504261363636  6.95252403846154 11.9694602272727  Z M 14.0294471153846 17.1512784090909  C 14.1123798076923 17.0703125  14.1538461538462 16.9668560606061  14.1538461538462 16.8409090909091  L 14.1538461538462 14.25  C 14.1538461538462 14.124053030303  14.1123798076923 14.0205965909091  14.0294471153846 13.9396306818182  C 13.9465144230769 13.8586647727273  13.8405448717949 13.8181818181818  13.7115384615385 13.8181818181818  L 9.28846153846154 13.8181818181818  C 9.15945512820513 13.8181818181818  9.05348557692308 13.8586647727273  8.97055288461538 13.9396306818182  C 8.88762019230769 14.0205965909091  8.84615384615385 14.124053030303  8.84615384615385 14.25  L 8.84615384615385 16.8409090909091  C 8.84615384615385 16.9668560606061  8.88762019230769 17.0703125  8.97055288461538 17.1512784090909  C 9.05348557692308 17.2322443181818  9.15945512820513 17.2727272727273  9.28846153846154 17.2727272727273  L 13.7115384615385 17.2727272727273  C 13.8405448717949 17.2727272727273  13.9465144230769 17.2322443181818  14.0294471153846 17.1512784090909  Z M 6.95252403846154 6.78764204545455  C 7.03545673076923 6.70667613636364  7.07692307692308 6.6032196969697  7.07692307692308 6.47727272727273  L 7.07692307692308 3.88636363636364  C 7.07692307692308 3.76041666666666  7.03545673076923 3.65696022727273  6.95252403846154 3.57599431818182  C 6.86959134615385 3.49502840909091  6.76362179487179 3.45454545454545  6.63461538461538 3.45454545454545  L 2.21153846153846 3.45454545454545  C 2.08253205128205 3.45454545454545  1.9765625 3.49502840909091  1.89362980769231 3.57599431818182  C 1.81069711538462 3.65696022727273  1.76923076923077 3.76041666666666  1.76923076923077 3.88636363636364  L 1.76923076923077 6.47727272727273  C 1.76923076923077 6.6032196969697  1.81069711538462 6.70667613636364  1.89362980769231 6.78764204545455  C 1.9765625 6.86860795454545  2.08253205128205 6.90909090909091  2.21153846153846 6.90909090909091  L 6.63461538461538 6.90909090909091  C 6.76362179487179 6.90909090909091  6.86959134615385 6.86860795454545  6.95252403846154 6.78764204545455  Z M 14.0294471153846 11.9694602272727  C 14.1123798076923 11.8884943181818  14.1538461538462 11.7850378787879  14.1538461538462 11.6590909090909  L 14.1538461538462 9.06818181818182  C 14.1538461538462 8.94223484848485  14.1123798076923 8.83877840909091  14.0294471153846 8.7578125  C 13.9465144230769 8.67684659090909  13.8405448717949 8.63636363636364  13.7115384615385 8.63636363636364  L 9.28846153846154 8.63636363636364  C 9.15945512820513 8.63636363636364  9.05348557692308 8.67684659090909  8.97055288461538 8.7578125  C 8.88762019230769 8.83877840909091  8.84615384615385 8.94223484848485  8.84615384615385 9.06818181818182  L 8.84615384615385 11.6590909090909  C 8.84615384615385 11.7850378787879  8.88762019230769 11.8884943181818  8.97055288461538 11.9694602272727  C 9.05348557692308 12.0504261363636  9.15945512820513 12.0909090909091  9.28846153846154 12.0909090909091  L 13.7115384615385 12.0909090909091  C 13.8405448717949 12.0909090909091  13.9465144230769 12.0504261363636  14.0294471153846 11.9694602272727  Z M 21.1063701923077 17.1512784090909  C 21.1893028846154 17.0703125  21.2307692307692 16.9668560606061  21.2307692307692 16.8409090909091  L 21.2307692307692 14.25  C 21.2307692307692 14.124053030303  21.1893028846154 14.0205965909091  21.1063701923077 13.9396306818182  C 21.0234375 13.8586647727273  20.917467948718 13.8181818181818  20.7884615384615 13.8181818181818  L 16.3653846153846 13.8181818181818  C 16.2363782051282 13.8181818181818  16.1304086538462 13.8586647727273  16.0474759615385 13.9396306818182  C 15.9645432692308 14.0205965909091  15.9230769230769 14.124053030303  15.9230769230769 14.25  L 15.9230769230769 16.8409090909091  C 15.9230769230769 16.9668560606061  15.9645432692308 17.0703125  16.0474759615385 17.1512784090909  C 16.1304086538462 17.2322443181818  16.2363782051282 17.2727272727273  16.3653846153846 17.2727272727273  L 20.7884615384615 17.2727272727273  C 20.917467948718 17.2727272727273  21.0234375 17.2322443181818  21.1063701923077 17.1512784090909  Z M 14.0294471153846 6.78764204545455  C 14.1123798076923 6.70667613636364  14.1538461538462 6.6032196969697  14.1538461538462 6.47727272727273  L 14.1538461538462 3.88636363636364  C 14.1538461538462 3.76041666666666  14.1123798076923 3.65696022727273  14.0294471153846 3.57599431818182  C 13.9465144230769 3.49502840909091  13.8405448717949 3.45454545454545  13.7115384615385 3.45454545454545  L 9.28846153846154 3.45454545454545  C 9.15945512820513 3.45454545454545  9.05348557692308 3.49502840909091  8.97055288461538 3.57599431818182  C 8.88762019230769 3.65696022727273  8.84615384615385 3.76041666666666  8.84615384615385 3.88636363636364  L 8.84615384615385 6.47727272727273  C 8.84615384615385 6.6032196969697  8.88762019230769 6.70667613636364  8.97055288461538 6.78764204545455  C 9.05348557692308 6.86860795454545  9.15945512820513 6.90909090909091  9.28846153846154 6.90909090909091  L 13.7115384615385 6.90909090909091  C 13.8405448717949 6.90909090909091  13.9465144230769 6.86860795454545  14.0294471153846 6.78764204545455  Z M 21.1063701923077 11.9694602272727  C 21.1893028846154 11.8884943181818  21.2307692307692 11.7850378787879  21.2307692307692 11.6590909090909  L 21.2307692307692 9.06818181818182  C 21.2307692307692 8.94223484848485  21.1893028846154 8.83877840909091  21.1063701923077 8.7578125  C 21.0234375 8.67684659090909  20.917467948718 8.63636363636364  20.7884615384615 8.63636363636364  L 16.3653846153846 8.63636363636364  C 16.2363782051282 8.63636363636364  16.1304086538462 8.67684659090909  16.0474759615385 8.7578125  C 15.9645432692308 8.83877840909091  15.9230769230769 8.94223484848485  15.9230769230769 9.06818181818182  L 15.9230769230769 11.6590909090909  C 15.9230769230769 11.7850378787879  15.9645432692308 11.8884943181818  16.0474759615385 11.9694602272727  C 16.1304086538462 12.0504261363636  16.2363782051282 12.0909090909091  16.3653846153846 12.0909090909091  L 20.7884615384615 12.0909090909091  C 20.917467948718 12.0909090909091  21.0234375 12.0504261363636  21.1063701923077 11.9694602272727  Z M 21.1063701923077 6.78764204545455  C 21.1893028846154 6.70667613636364  21.2307692307692 6.6032196969697  21.2307692307692 6.47727272727273  L 21.2307692307692 3.88636363636364  C 21.2307692307692 3.76041666666666  21.1893028846154 3.65696022727273  21.1063701923077 3.57599431818182  C 21.0234375 3.49502840909091  20.917467948718 3.45454545454545  20.7884615384615 3.45454545454545  L 16.3653846153846 3.45454545454545  C 16.2363782051282 3.45454545454545  16.1304086538462 3.49502840909091  16.0474759615385 3.57599431818182  C 15.9645432692308 3.65696022727273  15.9230769230769 3.76041666666666  15.9230769230769 3.88636363636364  L 15.9230769230769 6.47727272727273  C 15.9230769230769 6.6032196969697  15.9645432692308 6.70667613636364  16.0474759615385 6.78764204545455  C 16.1304086538462 6.86860795454545  16.2363782051282 6.90909090909091  16.3653846153846 6.90909090909091  L 20.7884615384615 6.90909090909091  C 20.917467948718 6.90909090909091  21.0234375 6.86860795454545  21.1063701923077 6.78764204545455  Z M 22.3503605769231 0.634232954545454  C 22.783453525641 1.05705492424242  23 1.56534090909091  23 2.15909090909091  L 23 16.8409090909091  C 23 17.4346590909091  22.783453525641 17.9429450757576  22.3503605769231 18.3657670454545  C 21.9172676282051 18.7885890151515  21.3966346153846 19  20.7884615384615 19  L 2.21153846153846 19  C 1.60336538461538 19  1.08273237179487 18.7885890151515  0.649639423076923 18.3657670454545  C 0.216546474358974 17.9429450757576  0 17.4346590909091  0 16.8409090909091  L 0 2.15909090909091  C 0 1.56534090909091  0.216546474358974 1.05705492424242  0.649639423076923 0.634232954545454  C 1.08273237179487 0.211410984848482  1.60336538461538 0  2.21153846153846 0  L 20.7884615384615 0  C 21.3966346153846 0  21.9172676282051 0.211410984848482  22.3503605769231 0.634232954545454  Z " fill-rule="nonzero" fill="#2e8ff4" stroke="none" transform="matrix(1 0 0 1 736 178 )" />
  </g>
</svg>