<?xml version="1.0" encoding="utf-8"?>
<svg version="1.1" xmlns:xlink="http://www.w3.org/1999/xlink" width="20px" height="3px" xmlns="http://www.w3.org/2000/svg">
  <g transform="matrix(1 0 0 1 -1121 -1705 )">
    <path d="M 19.6022727272727 0.21875  C 19.8674242424242 0.364583333333332  20 0.541666666666666  20 0.75  L 20 2.25  C 20 2.45833333333333  19.8674242424242 2.63541666666667  19.6022727272727 2.78125  C 19.3371212121212 2.92708333333333  19.0151515151515 3  18.6363636363636 3  L 1.36363636363636 3  C 0.984848484848485 3  0.662878787878788 2.92708333333333  0.397727272727273 2.78125  C 0.132575757575758 2.63541666666667  0 2.45833333333333  0 2.25  L 0 0.75  C 0 0.541666666666666  0.132575757575758 0.364583333333332  0.397727272727273 0.21875  C 0.662878787878788 0.0729166666666661  0.984848484848485 0  1.36363636363636 0  L 18.6363636363636 0  C 19.0151515151515 0  19.3371212121212 0.0729166666666661  19.6022727272727 0.21875  Z " fill-rule="nonzero" fill="#d8d8d8" stroke="none" transform="matrix(1 0 0 1 1121 1705 )" />
  </g>
</svg>