<svg t="1742868768141" class="icon" viewBox="0 0 1024 1024" version="1.1" xmlns="http://www.w3.org/2000/svg" p-id="2637" width="200" height="200"><path d="M893.64 797.29L725.18 628.84c20.55-25.29 37.36-53.22 50.14-83.42 18.11-42.81 27.29-88.27 27.29-135.1 0-46.84-9.18-92.29-27.29-135.1-17.48-41.33-42.5-78.44-74.36-110.31-31.86-31.86-68.97-56.88-110.31-74.36-42.81-18.11-88.27-27.29-135.1-27.29s-92.29 9.18-135.1 27.29c-41.33 17.48-78.44 42.5-110.31 74.36s-56.88 68.97-74.36 110.31c-18.11 42.81-27.29 88.27-27.29 135.1 0 46.84 9.18 92.29 27.29 135.1 17.48 41.33 42.5 78.44 74.36 110.31s68.97 56.88 110.31 74.36c42.81 18.11 88.27 27.29 135.1 27.29s92.29-9.18 135.1-27.29a345.135 345.135 0 0 0 83.64-50.31l168.44 168.44c7.03 7.03 16.24 10.54 25.46 10.54s18.43-3.51 25.46-10.54c14.05-14.07 14.05-36.87-0.01-50.93zM455.55 685.37c-151.67 0-275.06-123.39-275.06-275.06s123.39-275.06 275.06-275.06c151.67 0 275.06 123.39 275.06 275.06s-123.4 275.06-275.06 275.06z" fill="#31D0C8" p-id="2638"></path></svg>