<?xml version="1.0" encoding="utf-8"?>
<svg version="1.1" xmlns:xlink="http://www.w3.org/1999/xlink" width="15px" height="11px" xmlns="http://www.w3.org/2000/svg">
  <g transform="matrix(1 0 0 1 -1374 -180 )">
    <path d="M 6.99551569506727 8.25  L 7.46636771300448 8.25  L 8.44170403587444 7.34375  L 7.16367713004484 6.15625  L 6.18834080717489 7.0625  L 6.18834080717489 7.5  L 6.99551569506727 7.5  L 6.99551569506727 8.25  Z M 11.1575112107623 2.8828125  C 11.252802690583 2.79427083333333  11.2556053811659 2.70833333333333  11.1659192825112 2.625  C 11.0762331838565 2.54166666666667  10.9837443946188 2.54427083333333  10.8884529147982 2.6328125  L 7.94562780269058 5.3671875  C 7.85033632286996 5.45572916666667  7.847533632287 5.54166666666667  7.9372197309417 5.625  C 8.02690582959641 5.70833333333333  8.11939461883408 5.70572916666667  8.21468609865471 5.6171875  L 11.1575112107623 2.8828125  Z M 11.6704035874439 7.0390625  C 11.7825112107623 7.08072916666667  11.8385650224215 7.15625  11.8385650224215 7.265625  L 11.8385650224215 8.75  C 11.8385650224215 9.36979166666667  11.6017376681614 9.89973958333333  11.1280829596413 10.33984375  C 10.6544282511211 10.7799479166667  10.0840807174888 11  9.41704035874439 11  L 2.42152466367713 11  C 1.75448430493274 11  1.18413677130045 10.7799479166667  0.710482062780269 10.33984375  C 0.23682735426009 9.89973958333333  0 9.36979166666667  0 8.75  L 0 2.25  C 0 1.63020833333333  0.23682735426009 1.10026041666667  0.710482062780269 0.66015625  C 1.18413677130045 0.220052083333332  1.75448430493274 0  2.42152466367713 0  L 9.41704035874439 0  C 9.77017937219731 0  10.0980941704036 0.0651041666666661  10.4007847533632 0.195312499999999  C 10.484865470852 0.231770833333333  10.5353139013453 0.291666666666666  10.5521300448431 0.375  C 10.5689461883408 0.463541666666666  10.5437219730942 0.539062499999999  10.4764573991031 0.6015625  L 10.0644618834081 0.984375  C 9.9859865470852 1.05729166666667  9.89630044843049 1.078125  9.79540358744395 1.046875  C 9.6664798206278 1.015625  9.54035874439462 1  9.41704035874439 1  L 2.42152466367713 1  C 2.05156950672646 1  1.73486547085202 1.12239583333333  1.47141255605381 1.3671875  C 1.20795964125561 1.61197916666667  1.0762331838565 1.90625  1.0762331838565 2.25  L 1.0762331838565 8.75  C 1.0762331838565 9.09375  1.20795964125561 9.38802083333333  1.47141255605381 9.6328125  C 1.73486547085202 9.87760416666667  2.05156950672646 10  2.42152466367713 10  L 9.41704035874439 10  C 9.78699551569507 10  10.1036995515695 9.87760416666667  10.3671524663677 9.6328125  C 10.6306053811659 9.38802083333333  10.762331838565 9.09375  10.762331838565 8.75  L 10.762331838565 7.765625  C 10.762331838565 7.69791666666667  10.7875560538117 7.640625  10.8380044843049 7.59375  L 11.3761210762332 7.09375  C 11.460201793722 7.015625  11.5582959641256 6.99739583333333  11.6704035874439 7.0390625  Z M 5.38116591928251 6.75  L 11.0313901345291 1.5  L 13.4529147982063 3.75  L 7.80269058295964 9  L 5.38116591928251 9  L 5.38116591928251 6.75  Z M 15 2  C 15 2.20833333333333  14.9215246636771 2.38541666666667  14.7645739910314 2.53125  L 13.9910313901345 3.25  L 11.5695067264574 1  L 12.3430493273543 0.281249999999999  C 12.5 0.135416666666666  12.6905829596413 0.0625000000000006  12.914798206278 0.0625000000000006  C 13.1390134529148 0.0625000000000006  13.3295964125561 0.135416666666666  13.4865470852018 0.281249999999999  L 14.7645739910314 1.46875  C 14.9215246636771 1.61458333333333  15 1.79166666666667  15 2  Z " fill-rule="nonzero" fill="#c2c2c2" stroke="none" transform="matrix(1 0 0 1 1374 180 )" />
  </g>
</svg>