<?xml version="1.0" encoding="utf-8"?>
<svg version="1.1" xmlns:xlink="http://www.w3.org/1999/xlink" width="26px" height="15px" xmlns="http://www.w3.org/2000/svg">
  <g transform="matrix(1 0 0 1 -1395 -56 )">
    <path d="M 14.11083984375 9.826171875  C 14.45361328125 9.087890625  14.625 8.3125  14.625 7.5  C 14.625 6.6875  14.45361328125 5.912109375  14.11083984375 5.173828125  C 13.76806640625 4.435546875  13.3046875 3.796875  12.720703125 3.2578125  C 12.13671875 2.71875  11.44482421875 2.291015625  10.64501953125 1.974609375  C 9.84521484375 1.658203125  9.00520833333333 1.5  8.125 1.5  C 7.24479166666667 1.5  6.40478515625 1.658203125  5.60498046875 1.974609375  C 4.80517578125 2.291015625  4.11328125 2.71875  3.529296875 3.2578125  C 2.9453125 3.796875  2.48193359375 4.435546875  2.13916015625 5.173828125  C 1.79638671875 5.912109375  1.625 6.6875  1.625 7.5  C 1.625 8.3125  1.79638671875 9.087890625  2.13916015625 9.826171875  C 2.48193359375 10.564453125  2.9453125 11.203125  3.529296875 11.7421875  C 4.11328125 12.28125  4.80517578125 12.708984375  5.60498046875 13.025390625  C 6.40478515625 13.341796875  7.24479166666667 13.5  8.125 13.5  C 9.00520833333333 13.5  9.84521484375 13.341796875  10.64501953125 13.025390625  C 11.44482421875 12.708984375  12.13671875 12.28125  12.720703125 11.7421875  C 13.3046875 11.203125  13.76806640625 10.564453125  14.11083984375 9.826171875  Z M 23.86083984375 9.826171875  C 24.20361328125 9.087890625  24.375 8.3125  24.375 7.5  C 24.375 6.6875  24.20361328125 5.912109375  23.86083984375 5.173828125  C 23.51806640625 4.435546875  23.0546875 3.796875  22.470703125 3.2578125  C 21.88671875 2.71875  21.19482421875 2.291015625  20.39501953125 1.974609375  C 19.59521484375 1.658203125  18.7552083333333 1.5  17.875 1.5  L 12.974609375 1.5  C 13.9817708333333 2.203125  14.7794596354167 3.078125  15.36767578125 4.125  C 15.9558919270833 5.171875  16.25 6.296875  16.25 7.5  C 16.25 8.703125  15.9558919270833 9.828125  15.36767578125 10.875  C 14.7794596354167 11.921875  13.9817708333333 12.796875  12.974609375 13.5  L 17.875 13.5  C 18.7552083333333 13.5  19.59521484375 13.341796875  20.39501953125 13.025390625  C 21.19482421875 12.708984375  21.88671875 12.28125  22.470703125 11.7421875  C 23.0546875 11.203125  23.51806640625 10.564453125  23.86083984375 9.826171875  Z M 25.3525390625 4.587890625  C 25.7841796875 5.513671875  26 6.484375  26 7.5  C 26 8.515625  25.7841796875 9.486328125  25.3525390625 10.412109375  C 24.9208984375 11.337890625  24.34326171875 12.134765625  23.61962890625 12.802734375  C 22.89599609375 13.470703125  22.03271484375 14.00390625  21.02978515625 14.40234375  C 20.02685546875 14.80078125  18.9752604166667 15  17.875 15  L 8.125 15  C 7.02473958333333 15  5.97314453125 14.80078125  4.97021484375 14.40234375  C 3.96728515625 14.00390625  3.10400390625 13.470703125  2.38037109375 12.802734375  C 1.65673828125 12.134765625  1.0791015625 11.337890625  0.6474609375 10.412109375  C 0.2158203125 9.486328125  0 8.515625  0 7.5  C 0 6.484375  0.2158203125 5.513671875  0.6474609375 4.587890625  C 1.0791015625 3.662109375  1.65673828125 2.865234375  2.38037109375 2.197265625  C 3.10400390625 1.529296875  3.96728515625 0.99609375  4.97021484375 0.597656249999999  C 5.97314453125 0.19921875  7.02473958333333 0  8.125 0  L 17.875 0  C 18.9752604166667 0  20.02685546875 0.19921875  21.02978515625 0.597656249999999  C 22.03271484375 0.99609375  22.89599609375 1.529296875  23.61962890625 2.197265625  C 24.34326171875 2.865234375  24.9208984375 3.662109375  25.3525390625 4.587890625  Z " fill-rule="nonzero" fill="#55aaff" stroke="none" transform="matrix(1 0 0 1 1395 56 )" />
  </g>
</svg>