<?xml version="1.0" encoding="utf-8"?>
<svg version="1.1" xmlns:xlink="http://www.w3.org/1999/xlink" width="14px" height="7px" xmlns="http://www.w3.org/2000/svg">
  <g transform="matrix(1 0 0 1 -288 -227 )">
    <path d="M 13.8597194388778 0.72164948453606  C 13.9532398129593 0.80183276059553  14 0.894043528064183  14 0.998281786941467  C 14 1.10252004581903  13.9532398129593 1.1947308132874  13.8597194388778 1.27491408934715  L 7.32264529058118 6.87972508591066  C 7.22912491649968 6.95990836197013  7.121576486306 7  7 7  C 6.878423513694 7  6.77087508350032 6.95990836197013  6.67735470941882 6.87972508591066  L 0.140280561122177 1.27491408934715  C 0.0467601870406725 1.1947308132874  0 1.10252004581903  0 0.998281786941467  C 0 0.894043528064183  0.0467601870406725 0.80183276059553  0.140280561122177 0.72164948453606  L 0.841683366733537 0.120274914089344  C 0.935203740814882 0.0400916380298724  1.04275217100871 0  1.16432865731456 0  C 1.28590514362056 0  1.39345357381424 0.0400916380298724  1.48697394789574 0.120274914089344  L 7 4.84707903780073  L 12.5130260521043 0.120274914089344  C 12.6065464261858 0.0400916380298724  12.7140948563794 0  12.8356713426854 0  C 12.9572478289913 0  13.0647962591851 0.0400916380298724  13.1583166332665 0.120274914089344  L 13.8597194388778 0.72164948453606  Z " fill-rule="nonzero" fill="#b7b7b7" stroke="none" transform="matrix(1 0 0 1 288 227 )" />
  </g>
</svg>