<?xml version="1.0" encoding="utf-8"?>
<svg version="1.1" xmlns:xlink="http://www.w3.org/1999/xlink" width="13px" height="14px" xmlns="http://www.w3.org/2000/svg">
  <g transform="matrix(1 0 0 1 -173 -411 )">
    <path d="M 3.31640625 10.5607638888889  C 3.51171875 10.7633101851852  3.609375 11.0077160493827  3.609375 11.2939814814815  C 3.609375 11.5802469135802  3.51171875 11.8246527777778  3.31640625 12.0271990740741  C 3.12109375 12.2297453703704  2.88541666666667 12.3310185185185  2.609375 12.3310185185185  C 2.33854166666667 12.3310185185185  2.10416666666667 12.2283950617284  1.90625 12.0231481481481  C 1.70833333333333 11.8179012345679  1.609375 11.5748456790123  1.609375 11.2939814814815  C 1.609375 11.0077160493827  1.70703125 10.7633101851852  1.90234375 10.5607638888889  C 2.09765625 10.3582175925926  2.33333333333333 10.2569444444444  2.609375 10.2569444444444  C 2.88541666666667 10.2569444444444  3.12109375 10.3582175925926  3.31640625 10.5607638888889  Z M 7.20703125 12.2297453703704  C 7.40234375 12.4322916666667  7.5 12.6766975308642  7.5 12.962962962963  C 7.5 13.2492283950617  7.40234375 13.4936342592593  7.20703125 13.6961805555556  C 7.01171875 13.8987268518519  6.77604166666667 14  6.5 14  C 6.22395833333333 14  5.98828125 13.8987268518519  5.79296875 13.6961805555556  C 5.59765625 13.4936342592593  5.5 13.2492283950617  5.5 12.962962962963  C 5.5 12.6766975308642  5.59765625 12.4322916666667  5.79296875 12.2297453703704  C 5.98828125 12.0271990740741  6.22395833333333 11.9259259259259  6.5 11.9259259259259  C 6.77604166666667 11.9259259259259  7.01171875 12.0271990740741  7.20703125 12.2297453703704  Z M 1.70703125 6.52604166666667  C 1.90234375 6.72858796296296  2 6.97299382716049  2 7.25925925925926  C 2 7.54552469135802  1.90234375 7.78993055555556  1.70703125 7.99247685185185  C 1.51171875 8.19502314814815  1.27604166666667 8.2962962962963  1 8.2962962962963  C 0.723958333333333 8.2962962962963  0.48828125 8.19502314814815  0.29296875 7.99247685185185  C 0.09765625 7.78993055555556  0 7.54552469135802  0 7.25925925925926  C 0 6.97299382716049  0.09765625 6.72858796296296  0.29296875 6.52604166666667  C 0.48828125 6.32349537037037  0.723958333333333 6.22222222222222  1 6.22222222222222  C 1.27604166666667 6.22222222222222  1.51171875 6.32349537037037  1.70703125 6.52604166666667  Z M 11.09765625 10.5607638888889  C 11.29296875 10.7633101851852  11.390625 11.0077160493827  11.390625 11.2939814814815  C 11.390625 11.5748456790123  11.2916666666667 11.8179012345679  11.09375 12.0231481481481  C 10.8958333333333 12.2283950617284  10.6614583333333 12.3310185185185  10.390625 12.3310185185185  C 10.1145833333333 12.3310185185185  9.87890625 12.2297453703704  9.68359375 12.0271990740741  C 9.48828125 11.8246527777778  9.390625 11.5802469135802  9.390625 11.2939814814815  C 9.390625 11.0077160493827  9.48828125 10.7633101851852  9.68359375 10.5607638888889  C 9.87890625 10.3582175925926  10.1145833333333 10.2569444444444  10.390625 10.2569444444444  C 10.6666666666667 10.2569444444444  10.90234375 10.3582175925926  11.09765625 10.5607638888889  Z M 3.4921875 2.30902777777778  C 3.73697916666667 2.56288580246913  3.859375 2.86805555555556  3.859375 3.22453703703704  C 3.859375 3.58101851851852  3.73697916666667 3.88618827160494  3.4921875 4.1400462962963  C 3.24739583333333 4.39390432098765  2.953125 4.52083333333333  2.609375 4.52083333333333  C 2.265625 4.52083333333333  1.97135416666667 4.39390432098765  1.7265625 4.1400462962963  C 1.48177083333333 3.88618827160494  1.359375 3.58101851851852  1.359375 3.22453703703704  C 1.359375 2.86805555555556  1.48177083333333 2.56288580246913  1.7265625 2.30902777777778  C 1.97135416666667 2.05516975308642  2.265625 1.92824074074074  2.609375 1.92824074074074  C 2.953125 1.92824074074074  3.24739583333333 2.05516975308642  3.4921875 2.30902777777778  Z M 12.70703125 6.52604166666667  C 12.90234375 6.72858796296296  13 6.97299382716049  13 7.25925925925926  C 13 7.54552469135802  12.90234375 7.78993055555556  12.70703125 7.99247685185185  C 12.51171875 8.19502314814815  12.2760416666667 8.2962962962963  12 8.2962962962963  C 11.7239583333333 8.2962962962963  11.48828125 8.19502314814815  11.29296875 7.99247685185185  C 11.09765625 7.78993055555556  11 7.54552469135802  11 7.25925925925926  C 11 6.97299382716049  11.09765625 6.72858796296296  11.29296875 6.52604166666667  C 11.48828125 6.32349537037037  11.7239583333333 6.22222222222222  12 6.22222222222222  C 12.2760416666667 6.22222222222222  12.51171875 6.32349537037037  12.70703125 6.52604166666667  Z M 7.5625 0.453703703703704  C 7.85416666666667 0.756172839506172  8 1.12345679012346  8 1.55555555555556  C 8 1.98765432098765  7.85416666666667 2.35493827160494  7.5625 2.65740740740741  C 7.27083333333333 2.95987654320988  6.91666666666667 3.11111111111111  6.5 3.11111111111111  C 6.08333333333333 3.11111111111111  5.72916666666667 2.95987654320988  5.4375 2.65740740740741  C 5.14583333333333 2.35493827160494  5 1.98765432098765  5 1.55555555555556  C 5 1.12345679012346  5.14583333333333 0.756172839506172  5.4375 0.453703703703704  C 5.72916666666667 0.151234567901235  6.08333333333333 0  6.5 0  C 6.91666666666667 0  7.27083333333333 0.151234567901235  7.5625 0.453703703703704  Z M 11.625 1.94444444444444  C 11.96875 2.30092592592593  12.140625 2.72762345679012  12.140625 3.22453703703704  C 12.140625 3.72685185185185  11.96875 4.15489969135802  11.625 4.50868055555556  C 11.28125 4.86246141975309  10.8697916666667 5.03935185185185  10.390625 5.03935185185185  C 9.90625 5.03935185185185  9.49348958333333 4.86246141975309  9.15234375 4.50868055555556  C 8.81119791666667 4.15489969135802  8.640625 3.72685185185185  8.640625 3.22453703703704  C 8.640625 2.72762345679012  8.81119791666667 2.30092592592593  9.15234375 1.94444444444444  C 9.49348958333333 1.58796296296296  9.90625 1.40972222222222  10.390625 1.40972222222222  C 10.8697916666667 1.40972222222222  11.28125 1.58796296296296  11.625 1.94444444444444  Z " fill-rule="nonzero" fill="#707070" stroke="none" transform="matrix(1 0 0 1 173 411 )" />
  </g>
</svg>