<?xml version="1.0" encoding="utf-8"?>
<svg version="1.1" xmlns:xlink="http://www.w3.org/1999/xlink" width="12px" height="8px" xmlns="http://www.w3.org/2000/svg">
  <g transform="matrix(1 0 0 1 -608 -42 )">
    <path d="M 11.8797595190381 0.744100801832767  C 11.9599198396794 0.826778668703064  12 0.921858215603914  12 1.02933944253532  C 12 1.13682066946672  11.9599198396794 1.23190021636757  11.8797595190381 1.31457808323789  L 6.27655310621243 7.09376097747233  C 6.19639278557115 7.17643884434265  6.10420841683366 7.21777777777779  6 7.21777777777779  C 5.89579158316634 7.21777777777779  5.80360721442885 7.17643884434265  5.72344689378757 7.09376097747233  L 0.120240480961919 1.31457808323789  C 0.0400801603206397 1.23190021636757  0 1.13682066946672  0 1.02933944253532  C 0 0.921858215603914  0.0400801603206397 0.826778668703064  0.120240480961919 0.744100801832767  L 0.72144288577154 0.124016800305455  C 0.801603206412819 0.041338933435158  0.893787575150303 0  0.997995991983966 0  C 1.10220440881763 0  1.19438877755511 0.041338933435158  1.27454909819639 0.124016800305455  L 6 4.99787705231004  L 10.7254509018036 0.124016800305455  C 10.8056112224449 0.041338933435158  10.8977955911824 0  11.002004008016 0  C 11.1062124248497 0  11.1983967935872 0.041338933435158  11.2785571142285 0.124016800305455  L 11.8797595190381 0.744100801832767  Z " fill-rule="nonzero" fill="#dcdfe6" stroke="none" transform="matrix(1 0 0 1 608 42 )" />
  </g>
</svg>