<?xml version="1.0" encoding="utf-8"?>
<svg version="1.1" xmlns:xlink="http://www.w3.org/1999/xlink" width="14px" height="8px" xmlns="http://www.w3.org/2000/svg">
  <g transform="matrix(1 0 0 1 -524 -166 )">
    <path d="M 13.8597194388778 0.824742268041212  C 13.9532398129593 0.916380297823463  14 1.02176403207335  14 1.14089347079025  C 14 1.26002290950746  13.9532398129593 1.36540664375703  13.8597194388778 1.4570446735396  L 7.32264529058118 7.86254295532647  C 7.22912491649968 7.95418098510872  7.121576486306 8  7 8  C 6.878423513694 8  6.77087508350032 7.95418098510872  6.67735470941882 7.86254295532647  L 0.140280561122177 1.4570446735396  C 0.0467601870406725 1.36540664375703  0 1.26002290950746  0 1.14089347079025  C 0 1.02176403207335  0.0467601870406725 0.916380297823463  0.140280561122177 0.824742268041212  L 0.841683366733537 0.137457044673535  C 0.935203740814882 0.0458190148912827  1.04275217100871 0  1.16432865731456 0  C 1.28590514362056 0  1.39345357381424 0.0458190148912827  1.48697394789574 0.137457044673535  L 7 5.53951890034369  L 12.5130260521043 0.137457044673535  C 12.6065464261858 0.0458190148912827  12.7140948563794 0  12.8356713426854 0  C 12.9572478289913 0  13.0647962591851 0.0458190148912827  13.1583166332665 0.137457044673535  L 13.8597194388778 0.824742268041212  Z " fill-rule="nonzero" fill="#606266" stroke="none" transform="matrix(1 0 0 1 524 166 )" />
  </g>
</svg>