<?xml version="1.0" encoding="utf-8"?>
<svg version="1.1" xmlns:xlink="http://www.w3.org/1999/xlink" width="14px" height="14px" xmlns="http://www.w3.org/2000/svg">
  <g transform="matrix(1 0 0 1 -437 -3786 )">
    <path d="M 444 3786  C 447.92 3786  451 3789.08  451 3793  C 451 3796.92  447.92 3800  444 3800  C 440.08 3800  437 3796.92  437 3793  C 437 3789.08  440.08 3786  444 3786  Z " fill-rule="nonzero" fill="#ffffff" stroke="none" />
    <path d="M 444 3786.5  C 447.64 3786.5  450.5 3789.36  450.5 3793  C 450.5 3796.64  447.64 3799.5  444 3799.5  C 440.36 3799.5  437.5 3796.64  437.5 3793  C 437.5 3789.36  440.36 3786.5  444 3786.5  Z " stroke-width="1" stroke="#dcdfe6" fill="none" />
  </g>
</svg>