<?xml version="1.0" encoding="utf-8"?>
<svg version="1.1" xmlns:xlink="http://www.w3.org/1999/xlink" width="14px" height="14px" xmlns="http://www.w3.org/2000/svg">
  <g transform="matrix(1 0 0 1 -437 -3786 )">
    <path d="M 444 3790  C 445.68 3790  447 3791.32  447 3793  C 447 3794.68  445.68 3796  444 3796  C 442.32 3796  441 3794.68  441 3793  C 441 3791.32  442.32 3790  444 3790  Z " fill-rule="nonzero" fill="#ffffff" stroke="none" />
    <path d="M 444 3788.5  C 446.52 3788.5  448.5 3790.48  448.5 3793  C 448.5 3795.52  446.52 3797.5  444 3797.5  C 441.48 3797.5  439.5 3795.52  439.5 3793  C 439.5 3790.48  441.48 3788.5  444 3788.5  Z " stroke-width="5" stroke="#2e8ff4" fill="none" />
  </g>
</svg>