<?xml version="1.0" encoding="utf-8"?>
<svg version="1.1" xmlns:xlink="http://www.w3.org/1999/xlink" width="62px" height="32px" xmlns="http://www.w3.org/2000/svg">
  <g transform="matrix(1 0 0 1 -656 -4003 )">
    <path d="M 657 4007  A 3 3 0 0 1 660 4004 L 714 4004  A 3 3 0 0 1 717 4007 L 717 4031  A 3 3 0 0 1 714 4034 L 660 4034  A 3 3 0 0 1 657 4031 L 657 4007  Z " fill-rule="nonzero" fill="#909399" stroke="none" fill-opacity="0.0980392156862745" />
    <path d="M 656.5 4007  A 3.5 3.5 0 0 1 660 4003.5 L 714 4003.5  A 3.5 3.5 0 0 1 717.5 4007 L 717.5 4031  A 3.5 3.5 0 0 1 714 4034.5 L 660 4034.5  A 3.5 3.5 0 0 1 656.5 4031 L 656.5 4007  Z " stroke-width="1" stroke="#909399" fill="none" stroke-opacity="0.2" />
  </g>
</svg>