<?xml version="1.0" encoding="utf-8"?>
<svg version="1.1" xmlns:xlink="http://www.w3.org/1999/xlink" width="62px" height="32px" xmlns="http://www.w3.org/2000/svg">
  <g transform="matrix(1 0 0 1 -510 -4003 )">
    <path d="M 510.5 4007  A 3.5 3.5 0 0 1 514 4003.5 L 568 4003.5  A 3.5 3.5 0 0 1 571.5 4007 L 571.5 4031  A 3.5 3.5 0 0 1 568 4034.5 L 514 4034.5  A 3.5 3.5 0 0 1 510.5 4031 L 510.5 4007  Z " fill-rule="nonzero" fill="#0099ff" stroke="none" fill-opacity="0.0980392156862745" />
    <path d="M 510.5 4007  A 3.5 3.5 0 0 1 514 4003.5 L 568 4003.5  A 3.5 3.5 0 0 1 571.5 4007 L 571.5 4031  A 3.5 3.5 0 0 1 568 4034.5 L 514 4034.5  A 3.5 3.5 0 0 1 510.5 4031 L 510.5 4007  Z " stroke-width="1" stroke="#a7d2f9" fill="none" />
  </g>
</svg>