<?xml version="1.0" encoding="utf-8"?>
<svg version="1.1" xmlns:xlink="http://www.w3.org/1999/xlink" width="10px" height="17px" xmlns="http://www.w3.org/2000/svg">
  <g transform="matrix(1 0 0 1 -32 -2076 )">
    <path d="M 9.5895176252319 0.206046232413423  C 9.79514533085961 0.410870704816014  9.89795918367345 0.653426001082252  9.89795918367345 0.933712121212138  L 9.89795918367345 15.4223484848485  C 9.89795918367345 15.7026346049784  9.79514533085961 15.9451899012446  9.5895176252319 16.1500143736472  C 9.38388991960419 16.3548388460498  9.14038342609771 16.4572510822511  8.85899814471242 16.4572510822511  C 8.57761286332714 16.4572510822511  8.33410636982066 16.3548388460498  8.12847866419295 16.1500143736472  L 0.855751391465686 8.90569619182901  C 0.650123685837973 8.70087171942642  0.547309833024135 8.45831642316018  0.547309833024135 8.17803030303031  C 0.547309833024135 7.89774418290045  0.650123685837973 7.65518888663421  0.855751391465686 7.45036441423162  L 8.12847866419295 0.206046232413423  C 8.33410636982066 0.00122176001083218  8.57761286332714 -0.101190476190473  8.85899814471242 -0.101190476190473  C 9.14038342609771 -0.101190476190473  9.38388991960419 0.00122176001083218  9.5895176252319 0.206046232413423  Z " fill-rule="nonzero" fill="#cccccc" stroke="none" transform="matrix(1 0 0 1 32 2076 )" />
  </g>
</svg>