<?xml version="1.0" encoding="utf-8"?>
<svg version="1.1" xmlns:xlink="http://www.w3.org/1999/xlink" width="10px" height="17px" xmlns="http://www.w3.org/2000/svg">
  <g transform="matrix(1 0 0 1 -100 -2186 )">
    <path d="M 9.04220779220777 7.55155489042199  C 9.24783549783545 7.75637936282468  9.35064935064933 7.99893465909098  9.35064935064933 8.27922077922089  C 9.35064935064933 8.55950689935063  9.24783549783545 8.80206219561693  9.04220779220777 9.00688666801946  L 1.76948051948053 16.2512048498377  C 1.56385281385281 16.4560293222402  1.32034632034634 16.5584415584416  1.03896103896103 16.5584415584416  C 0.757575757575759 16.5584415584416  0.514069264069284 16.4560293222402  0.308441558441562 16.2512048498377  C 0.102813852813881 16.046380377435  0 15.8038250811688  0 15.5235389610391  L 0 1.03490259740253  C 0 0.754616477272786  0.102813852813881 0.512061181006487  0.308441558441562 0.307236708603957  C 0.514069264069284 0.102412236201265  0.757575757575759 0  1.03896103896103 0  C 1.32034632034634 0  1.56385281385281 0.102412236201265  1.76948051948053 0.307236708603957  L 9.04220779220777 7.55155489042199  Z " fill-rule="nonzero" fill="#cccccc" stroke="none" transform="matrix(1 0 0 1 100 2186 )" />
  </g>
</svg>