<?xml version="1.0" encoding="utf-8"?>
<svg version="1.1" xmlns:xlink="http://www.w3.org/1999/xlink" width="20px" height="20px" xmlns="http://www.w3.org/2000/svg">
  <g transform="matrix(1 0 0 1 -677 -3947 )">
    <path d="M 687 3948  C 692.04 3948  696 3951.96  696 3957  C 696 3962.04  692.04 3966  687 3966  C 681.96 3966  678 3962.04  678 3957  C 678 3951.96  681.96 3948  687 3948  Z " fill-rule="nonzero" fill="#ffffff" stroke="none" />
    <path d="M 687 3948  C 692.04 3948  696 3951.96  696 3957  C 696 3962.04  692.04 3966  687 3966  C 681.96 3966  678 3962.04  678 3957  C 678 3951.96  681.96 3948  687 3948  Z " stroke-width="2" stroke="#409eff" fill="none" />
  </g>
</svg>